<svg width="132" height="30" viewBox="0 0 132 30" fill="none" xmlns="http://www.w3.org/2000/svg">
<path d="M107.415 0.806224H110.48C110.985 0.806224 111.409 0.832764 111.754 0.885847C112.099 0.912388 112.338 1.13799 112.471 1.56264C112.498 1.69535 112.511 1.84132 112.511 2.00057C112.511 2.13327 112.511 2.27925 112.511 2.4385V4.03096V9.20645V10.0823C112.511 10.3212 112.511 10.56 112.511 10.7989C112.511 11.0378 112.551 11.2501 112.63 11.4359C112.657 11.489 112.697 11.5421 112.75 11.5951C112.829 11.6482 112.896 11.6748 112.949 11.6748C113.135 11.7278 113.307 11.6748 113.466 11.5155C113.652 11.3563 113.785 11.2368 113.864 11.1572C114.077 10.9449 114.289 10.7326 114.501 10.5202C114.714 10.3079 114.913 10.0823 115.099 9.84343C115.178 9.79035 115.284 9.69746 115.417 9.56475C115.523 9.45859 115.629 9.35242 115.736 9.24626C115.842 9.11355 115.935 8.98085 116.014 8.84814C116.067 8.79506 116.12 8.75525 116.173 8.72871C116.227 8.70217 116.28 8.66236 116.333 8.60928C116.465 8.39695 116.625 8.22443 116.81 8.09173C116.996 7.93248 117.155 7.75996 117.288 7.57418C117.447 7.36185 117.593 7.18933 117.726 7.05663C117.779 7.03009 117.846 6.97701 117.925 6.89738C118.244 6.47273 118.602 6.08788 119 5.74285C119.398 5.39782 119.757 5.01297 120.075 4.58832L120.274 4.38926C120.354 4.30963 120.433 4.23001 120.513 4.15039C120.593 4.07077 120.672 3.97787 120.752 3.87171C120.778 3.81863 120.805 3.79209 120.831 3.79209C120.858 3.76555 120.898 3.72573 120.951 3.67265C121.11 3.56649 121.23 3.42051 121.309 3.23473C121.362 3.18164 121.429 3.12856 121.508 3.07548C121.588 3.0224 121.654 2.96931 121.707 2.91623C121.787 2.78353 121.88 2.66409 121.986 2.55793C122.092 2.45177 122.198 2.33233 122.304 2.19963C122.358 2.14654 122.397 2.10673 122.424 2.08019C122.477 2.05365 122.53 2.01384 122.583 1.96076C122.769 1.69535 122.981 1.46975 123.22 1.28396C123.459 1.07163 123.764 0.925659 124.136 0.846037C124.348 0.792954 124.587 0.779683 124.852 0.806224C125.144 0.806224 125.41 0.806224 125.649 0.806224H128.714C129.006 0.806224 129.311 0.806224 129.63 0.806224C129.975 0.779683 130.24 0.832765 130.426 0.96547C130.585 1.09817 130.625 1.25742 130.545 1.44321C130.466 1.60245 130.4 1.73516 130.346 1.84132C130.214 1.97403 130.081 2.10673 129.948 2.23944C129.816 2.3456 129.683 2.46504 129.55 2.59774C129.364 2.81007 129.179 3.00913 128.993 3.19491C128.834 3.3807 128.648 3.56649 128.435 3.75227C127.507 4.68121 126.578 5.62341 125.649 6.57889C124.72 7.53437 123.791 8.47657 122.862 9.40551C122.437 9.88324 121.986 10.3344 121.508 10.7591C121.322 10.9449 121.15 11.1307 120.991 11.3165C120.831 11.4757 120.725 11.7013 120.672 11.9933C120.619 12.2056 120.659 12.4179 120.792 12.6302C120.924 12.816 121.03 12.9753 121.11 13.108C121.376 13.5061 121.641 13.9042 121.906 14.3023C122.198 14.6739 122.477 15.0587 122.742 15.4569C123.857 17.0493 124.972 18.6285 126.087 20.1944C127.201 21.7338 128.316 23.2997 129.431 24.8922L130.864 26.9226C130.97 27.0818 131.076 27.2411 131.182 27.4003C131.315 27.533 131.435 27.679 131.541 27.8382C131.62 27.9709 131.713 28.1567 131.819 28.3956C131.926 28.6345 131.886 28.8202 131.7 28.9529C131.514 29.0857 131.249 29.152 130.904 29.152C130.559 29.152 130.24 29.152 129.948 29.152H126.803C126.511 29.152 126.219 29.1653 125.927 29.1918C125.635 29.1918 125.37 29.1653 125.131 29.1122C124.839 29.006 124.6 28.8601 124.414 28.6743C124.255 28.4619 124.096 28.2363 123.937 27.9975C123.777 27.7851 123.618 27.5728 123.459 27.3605C123.326 27.1216 123.18 26.8827 123.021 26.6439C122.304 25.5292 121.575 24.441 120.831 23.3793C120.088 22.3177 119.345 21.2295 118.602 20.1148C118.31 19.6636 118.018 19.2257 117.726 18.801C117.461 18.3764 117.182 17.9517 116.89 17.5271C116.784 17.3943 116.651 17.2484 116.492 17.0891C116.333 16.9033 116.12 16.837 115.855 16.8901C115.59 16.9697 115.324 17.1555 115.059 17.4474C114.793 17.7128 114.568 17.9384 114.382 18.1242C114.249 18.2569 114.117 18.4029 113.984 18.5621C113.851 18.6949 113.718 18.8276 113.586 18.9603C113.4 19.146 113.227 19.3318 113.068 19.5176C112.909 19.6769 112.776 19.8759 112.67 20.1148C112.59 20.274 112.537 20.4466 112.511 20.6323C112.511 20.8181 112.511 21.0172 112.511 21.2295V21.7471C112.484 21.8798 112.471 22.039 112.471 22.2248C112.498 22.3841 112.511 22.53 112.511 22.6627V24.5339V27.3605C112.511 27.6524 112.498 27.9311 112.471 28.1965C112.471 28.4619 112.405 28.6743 112.272 28.8335C112.139 28.9928 111.94 29.0857 111.675 29.1122C111.409 29.1387 111.131 29.152 110.839 29.152H108.132C107.84 29.152 107.561 29.152 107.295 29.152C107.03 29.1255 106.804 29.0458 106.619 28.9131C106.433 28.7804 106.34 28.5416 106.34 28.1965C106.34 27.825 106.34 27.4667 106.34 27.1216V22.5035V6.6187V2.91623C106.34 2.62428 106.327 2.31906 106.3 2.00057C106.3 1.68208 106.353 1.42994 106.459 1.24415C106.619 1.05836 106.831 0.925659 107.096 0.846037C107.149 0.819495 107.203 0.819495 107.256 0.846037C107.309 0.846037 107.362 0.832766 107.415 0.806224Z" fill="#4CCF80"/>
<path d="M77.9063 0.806241H81.1311C81.423 0.806241 81.7017 0.806241 81.9671 0.806241C82.2591 0.7797 82.5112 0.819512 82.7235 0.925676C82.989 1.03184 83.188 1.19109 83.3207 1.40342C83.48 1.61574 83.6259 1.82807 83.7587 2.0404L85.1919 4.30965C86.1208 5.82249 87.0498 7.33533 87.9787 8.84816C88.9342 10.3345 89.8764 11.834 90.8053 13.3469C91.2565 14.0635 91.6944 14.7933 92.1191 15.5365C92.5703 16.2531 93.0348 16.9564 93.5125 17.6465C93.6187 17.8057 93.7116 17.965 93.7912 18.1242C93.8974 18.2835 94.0301 18.4295 94.1893 18.5622C94.2424 18.6152 94.3088 18.6683 94.3884 18.7214C94.468 18.7745 94.5476 18.7745 94.6272 18.7214C94.813 18.6683 94.9059 18.5489 94.9059 18.3631C94.9059 18.1773 94.9325 17.9783 94.9855 17.7659C95.0121 17.5802 95.0121 17.3811 94.9855 17.1688C94.9855 16.9299 94.9855 16.7043 94.9855 16.492V13.9838V4.74758V3.23474C94.9855 3.10204 94.9723 2.96933 94.9457 2.83663C94.9457 2.70392 94.959 2.58449 94.9855 2.47833V2.0404C94.9855 1.66882 95.0652 1.37687 95.2244 1.16454C95.3571 0.978758 95.5296 0.872595 95.742 0.846054C95.9808 0.819512 96.2463 0.806241 96.5382 0.806241H98.9667C99.179 0.806241 99.3914 0.806241 99.6037 0.806241C99.816 0.806241 100.002 0.832782 100.161 0.885865C100.506 1.01857 100.692 1.25744 100.718 1.60247C100.745 1.92096 100.758 2.30581 100.758 2.757V7.13627V23.8173V27.1615C100.758 27.4534 100.758 27.7454 100.758 28.0373C100.785 28.3293 100.745 28.5549 100.639 28.7141C100.533 28.8733 100.4 28.9795 100.241 29.0326C100.108 29.0591 99.9355 29.0989 99.7231 29.152H98.3297H96.1401C95.9012 29.152 95.6623 29.152 95.4235 29.152C95.2111 29.152 95.0254 29.1122 94.8661 29.0326C94.5742 28.8999 94.3486 28.7274 94.1893 28.515C94.0301 28.2762 93.8708 28.024 93.7116 27.7586C93.4727 27.3871 93.2338 27.0155 92.995 26.6439C92.7826 26.2458 92.557 25.8609 92.3182 25.4894L86.3464 15.9346C85.9748 15.3242 85.6033 14.7403 85.2317 14.1829C84.8866 13.599 84.5283 13.0018 84.1568 12.3914C84.0241 12.2056 83.8648 11.98 83.679 11.7146C83.5198 11.4226 83.2942 11.2767 83.0022 11.2767C82.7899 11.4625 82.6705 11.6748 82.6439 11.9136C82.6439 12.1525 82.6439 12.4577 82.6439 12.8293V15.6161V25.1311V26.6837C82.6439 26.8164 82.6439 26.9491 82.6439 27.0818C82.6705 27.2145 82.6572 27.3472 82.6041 27.4799V27.9179C82.6041 28.3425 82.5378 28.6477 82.4051 28.8335C82.2723 28.9928 82.0866 29.0857 81.8477 29.1122C81.6354 29.1388 81.3832 29.152 81.0913 29.152H78.6628C78.4504 29.152 78.2381 29.152 78.0258 29.152C77.8134 29.152 77.6277 29.1255 77.4684 29.0724C77.1234 28.9397 76.9243 28.7008 76.8712 28.3558C76.8447 28.0108 76.8314 27.6126 76.8314 27.1615V22.5831V6.61872V2.91625C76.8314 2.6243 76.8314 2.31908 76.8314 2.00059C76.8314 1.68209 76.8845 1.42995 76.9907 1.24417C77.0968 1.05838 77.2826 0.925676 77.548 0.846054C77.6011 0.846054 77.6542 0.846054 77.7073 0.846054C77.7869 0.819512 77.8533 0.806241 77.9063 0.806241Z" fill="#4CCF80"/>
<path d="M66.0859 0.846069H69.5097C69.8017 0.846069 70.0804 0.859339 70.3458 0.88588C70.6112 0.88588 70.8102 0.978773 70.9429 1.16456C71.0757 1.35035 71.142 1.58922 71.142 1.88117C71.1685 2.17312 71.1818 2.49161 71.1818 2.83664V6.30024V20.1148V26.6439C71.1818 26.9889 71.1818 27.3738 71.1818 27.7984C71.2084 28.2231 71.1553 28.5416 71.0226 28.7539C70.9164 28.9397 70.6775 29.0857 70.306 29.1918C70.1202 29.2449 69.9211 29.2582 69.7088 29.2317C69.4965 29.2051 69.2841 29.1918 69.0718 29.1918H66.7229C66.431 29.1918 66.1523 29.1786 65.8869 29.152C65.648 29.1255 65.4489 29.0459 65.2897 28.9132C65.157 28.7805 65.0774 28.5814 65.0508 28.316C65.0243 28.0506 65.011 27.7719 65.011 27.48V24.0164V9.48516V3.67268C65.011 3.30111 64.9977 2.86318 64.9712 2.3589C64.9712 1.85463 65.0375 1.49632 65.1703 1.28399C65.2764 1.12475 65.4489 0.992044 65.6878 0.88588C65.7674 0.88588 65.8338 0.88588 65.8869 0.88588C65.9665 0.859339 66.0328 0.846069 66.0859 0.846069Z" fill="#4CCF80"/>
<path d="M36.6566 0.80616H39.8415C40.2927 0.80616 40.6776 0.832701 40.9961 0.885784C41.3411 0.912325 41.58 1.11138 41.7127 1.48296C41.7657 1.61566 41.7923 1.76164 41.7923 1.92088C41.7923 2.05359 41.7923 2.18629 41.7923 2.319V3.7124V8.52959C41.7923 8.98079 41.779 9.49833 41.7525 10.0822C41.7259 10.6396 41.8188 11.0643 42.0312 11.3562C42.1639 11.5155 42.3098 11.6083 42.4691 11.6349C42.6549 11.6349 42.8539 11.6614 43.0663 11.7145H50.7101C51.1878 11.7145 51.6789 11.7145 52.1831 11.7145C52.6874 11.688 53.0325 11.5154 53.2182 11.197C53.3509 10.9581 53.404 10.5998 53.3775 10.122C53.3509 9.64431 53.3377 9.21965 53.3377 8.84808V3.67259C53.3377 3.27447 53.3244 2.81001 53.2979 2.27919C53.2979 1.74837 53.3908 1.37679 53.5765 1.16446C53.6562 1.03176 53.8154 0.938865 54.0543 0.885784C54.3197 0.832701 54.6117 0.80616 54.9301 0.80616C55.2486 0.77962 55.5671 0.77962 55.8856 0.80616C56.2041 0.80616 56.4828 0.80616 56.7217 0.80616C57.1729 0.80616 57.6373 0.80616 58.1151 0.80616C58.6194 0.77962 58.9909 0.872513 59.2298 1.08484C59.4156 1.21755 59.5085 1.44314 59.5085 1.76164C59.5085 2.05359 59.5085 2.34554 59.5085 2.63749V6.53902V22.8219V27.1614C59.5085 27.4799 59.5085 27.8116 59.5085 28.1567C59.5085 28.5017 59.4156 28.7406 59.2298 28.8733C58.9909 29.0856 58.6061 29.1917 58.0753 29.1917C57.571 29.1652 57.0932 29.1519 56.642 29.1519C56.4032 29.1519 56.1245 29.1652 55.806 29.1917C55.514 29.1917 55.2088 29.1917 54.8903 29.1917C54.5984 29.1652 54.3197 29.1387 54.0543 29.1121C53.8154 29.059 53.6562 28.9662 53.5765 28.8334C53.4969 28.7273 53.4306 28.5548 53.3775 28.3159C53.3509 28.0505 53.3244 27.7851 53.2979 27.5197C53.2979 27.2277 53.2979 26.949 53.2979 26.6836C53.3244 26.3917 53.3377 26.1395 53.3377 25.9272V20.1545V19C53.3377 18.8938 53.3377 18.7877 53.3377 18.6815C53.3642 18.5754 53.3642 18.4692 53.3377 18.363V17.9649C53.3111 17.8853 53.2979 17.8057 53.2979 17.726C53.2979 17.6464 53.2846 17.5668 53.2581 17.4872C53.0723 17.1156 52.7272 16.9298 52.223 16.9298C51.7187 16.9298 51.2011 16.9298 50.6703 16.9298H42.8274C42.6151 16.9829 42.4425 17.036 42.3098 17.0891C42.1771 17.1156 42.0577 17.2085 41.9515 17.3677C41.8985 17.5004 41.8454 17.6995 41.7923 17.9649V18.363C41.7657 18.4957 41.7525 18.655 41.7525 18.8408C41.779 19 41.7923 19.146 41.7923 19.2787V21.0304V26.5244C41.7923 26.9225 41.7923 27.3472 41.7923 27.7983C41.7923 28.2495 41.7127 28.5946 41.5534 28.8334C41.4738 28.9662 41.3013 29.059 41.0359 29.1121C40.797 29.1387 40.5183 29.1652 40.1998 29.1917C39.9079 29.1917 39.6026 29.1917 39.2842 29.1917C38.9657 29.1652 38.687 29.1519 38.4481 29.1519C38.0765 29.1519 37.6253 29.1652 37.0945 29.1917C36.5637 29.1917 36.1921 29.1121 35.9798 28.9529C35.7675 28.7936 35.648 28.5415 35.6215 28.1965C35.5949 27.8514 35.5817 27.4931 35.5817 27.1216V22.5432V6.61864V2.91617C35.5817 2.62422 35.5817 2.319 35.5817 2.00051C35.5817 1.68201 35.6347 1.42987 35.7409 1.24409C35.8471 1.0583 36.0329 0.925596 36.2983 0.845974C36.3514 0.845974 36.4044 0.845974 36.4575 0.845974C36.5371 0.819432 36.6035 0.80616 36.6566 0.80616Z" fill="#4CCF80"/>
<path d="M4.17385 17.4469H0.794921C0.355831 17.4469 -0.00012207 17.8028 -0.00012207 18.2419V28.3747C-0.00012207 28.8138 0.355831 29.1697 0.794921 29.1697H4.17385C4.61294 29.1697 4.96889 28.8138 4.96889 28.3747V18.2419C4.96889 17.8028 4.61294 17.4469 4.17385 17.4469Z" fill="#00112D"/>
<path d="M4.17385 0.75502H0.794921C0.355831 0.75502 -0.00012207 1.11097 -0.00012207 1.55006V11.6828C-0.00012207 12.1219 0.355831 12.4779 0.794921 12.4779H4.17385C4.61294 12.4779 4.96889 12.1219 4.96889 11.6828V1.55006C4.96889 1.11097 4.61294 0.75502 4.17385 0.75502Z" fill="#00112D"/>
<path d="M21.3704 24.2047H17.9915C17.5524 24.2047 17.1964 24.5606 17.1964 24.9997V28.3786C17.1964 28.8177 17.5524 29.1737 17.9915 29.1737H21.3704C21.8095 29.1737 22.1654 28.8177 22.1654 28.3786V24.9997C22.1654 24.5606 21.8095 24.2047 21.3704 24.2047Z" fill="#00112D"/>
<path d="M8.25232 1.55006V4.92898C8.25232 5.36625 8.61009 5.72401 9.04736 5.72401H16.4015C16.8388 5.72401 17.1965 6.08178 17.1965 6.51905V18.4407C17.1965 18.8779 17.5543 19.2357 17.9916 19.2357H21.3705C21.8078 19.2357 22.1656 18.8779 22.1656 18.4407V6.51905C22.1656 6.08178 22.5233 5.72401 22.9606 5.72401H30.3148C30.752 5.72401 31.1098 5.36625 31.1098 4.92898V1.55006C31.1098 1.11279 30.756 0.75502 30.3148 0.75502H9.04736C8.61009 0.75502 8.25232 1.11279 8.25232 1.55006Z" fill="#00112D"/>
</svg>
