<svg width="60" height="60" viewBox="0 0 60 60" fill="none" xmlns="http://www.w3.org/2000/svg">
<rect width="60" height="60" rx="15" fill="#00112D"/>
<path d="M39.6076 23.2016C43.7576 28.8916 43.2676 36.9116 38.1376 42.0516C32.4576 47.7316 23.2476 47.7316 17.5676 42.0516C11.8876 36.3716 11.8876 27.1616 17.5676 21.4816C22.7076 16.3416 30.7276 15.8516 36.4176 20.0116M36.7276 26.0716C39.3476 30.1516 38.8776 35.6516 35.2976 39.2216C31.1776 43.3416 24.4976 43.3416 20.3776 39.2216C16.2576 35.1016 16.2576 28.4216 20.3776 24.3016C23.9476 20.7316 29.4476 20.2516 33.5276 22.8716M33.7976 29.0116C34.9176 31.4316 34.4776 34.4016 32.4776 36.4016C29.9176 38.9616 25.7676 38.9616 23.2076 36.4016C20.6476 33.8416 20.6476 29.6916 23.2076 27.1316C25.2076 25.1316 28.1676 24.6916 30.5976 25.8116M30.2876 32.5116C30.1676 32.9016 29.9576 33.2616 29.6476 33.5716C28.6476 34.5716 27.0276 34.5716 26.0276 33.5716C25.0276 32.5716 25.0276 30.9516 26.0276 29.9516C26.3376 29.6416 26.6976 29.4316 27.0876 29.3116M28.0376 31.6316L46.2076 13.4616M40.0476 20.3516L43.7276 21.5116L48.0176 17.2216L44.3376 16.0616M39.3776 19.6916L38.2176 16.0116L42.5076 11.7216L43.6676 15.4016" stroke="white" stroke-width="1.44" stroke-linecap="round" stroke-linejoin="round"/>
<path d="M28.0635 31.6917L39.6103 20.1449M46.2683 13.4871L43.9117 15.8437M39.6103 20.1449L38.2369 16.0842C38.2248 16.0482 38.234 16.0085 38.2608 15.9816L42.4043 11.8148C42.4567 11.7621 42.5463 11.783 42.57 11.8535L43.9117 15.8437M39.6103 20.1449L43.9117 15.8437M39.6103 20.1449L43.5508 21.5062C43.5864 21.5185 43.6259 21.5098 43.653 21.4836L47.9254 17.3513C47.9792 17.2992 47.9588 17.2086 47.8878 17.1847L43.9117 15.8437" stroke="#76FCAB" stroke-width="1.44" stroke-linecap="round"/>
</svg>
