<svg width="60" height="60" viewBox="0 0 60 60" fill="none" xmlns="http://www.w3.org/2000/svg">
<rect width="60" height="60" rx="15" fill="#00112D"/>
<path d="M25.329 38.9701C24.939 32.9901 20.3091 36.0201 19.7691 27.8901C19.4291 22.7601 24.199 18.5801 29.669 18.5801C35.139 18.5801 39.939 22.7601 39.569 27.8901C39.079 34.8201 35.639 33.4201 34.369 37.0501M25.489 46.1001L34.409 43.7601M25.489 42.7401L34.409 40.4001M25.489 39.3801L34.409 37.0401M32.869 45.0201C32.869 46.5501 31.439 47.7901 29.679 47.7901C28.569 47.7901 27.589 47.3001 27.019 46.5501M29.989 12.0701V15.0701M40.869 16.2201L38.749 18.3401M45.819 27.9001H42.819M40.439 39.0901L38.319 36.9701M18.9191 16.2201L21.0391 18.3401M13.5391 27.2901H16.5391M18.4891 39.0901L20.6091 36.9701" stroke="white" stroke-width="1.44" stroke-linecap="round" stroke-linejoin="round"/>
<path d="M26.0986 29.46L29.3586 33.94L34.2586 25.29" stroke="#76FCAB" stroke-width="1.44" stroke-linecap="round" stroke-linejoin="round"/>
</svg>
