<svg width="60" height="60" viewBox="0 0 60 60" fill="none" xmlns="http://www.w3.org/2000/svg">
<rect width="60" height="60" rx="15" fill="#00112D"/>
<path d="M25.8082 40.0045L24.9282 43.3645C24.7682 43.9745 23.7682 43.8345 23.3082 43.3945L15.9682 36.3645C15.5182 35.9345 15.3282 34.9045 15.9382 34.7445L19.1882 33.6545M19.8682 30.0145L29.6082 39.2445M22.7982 36.7445L22.7282 36.6745L18.2782 32.4045C21.6082 27.7345 25.3682 21.4844 29.2182 17.4544C32.5982 13.9244 38.0582 13.3044 43.1382 15.3744L43.1882 15.3944C45.5382 20.4744 45.0582 25.9545 41.7282 29.4345C37.8682 33.4545 31.7782 37.4745 27.2582 41.0045L22.8082 36.7345L22.7982 36.7445ZM33.9782 14.6444C36.7982 13.8544 40.0382 14.1244 43.1282 15.3844L43.1782 15.4044C44.6082 18.4944 44.9882 21.7244 44.3282 24.5645L33.9782 14.6444ZM35.2582 23.6745C36.3582 24.7345 36.3982 26.4845 35.3382 27.5845C34.2782 28.6845 32.5282 28.7245 31.4282 27.6645C30.3282 26.6045 30.2882 24.8545 31.3482 23.7545C32.4082 22.6544 34.1582 22.6144 35.2582 23.6745ZM30.0482 29.1045C31.1482 30.1645 31.1882 31.9145 30.1282 33.0145C29.0682 34.1145 27.3182 34.1545 26.2182 33.0945C25.1182 32.0345 25.0782 30.2845 26.1382 29.1845C27.1982 28.0845 28.9482 28.0445 30.0482 29.1045ZM18.3082 32.3845L24.4982 23.3645C22.4982 22.9844 20.4082 22.0744 18.4982 22.2144C12.4782 22.6344 11.4482 27.8945 10.9082 32.8945L18.3082 32.3945V32.3845ZM27.2682 40.9745L36.0182 34.4045C36.4882 36.3845 37.4782 38.4345 37.4282 40.3445C37.2582 46.3845 32.0482 47.6345 27.0882 48.3845L27.2782 40.9745H27.2682Z" stroke="white" stroke-width="1.44" stroke-linecap="round" stroke-linejoin="round"/>
<circle cx="33.3991" cy="25.6816" r="2.75528" stroke="#76FCAB" stroke-width="1.44"/>
<circle cx="28.1081" cy="31.1122" r="2.75528" stroke="#76FCAB" stroke-width="1.44"/>
</svg>
