<svg width="60" height="60" viewBox="0 0 60 60" fill="none" xmlns="http://www.w3.org/2000/svg">
<rect width="60" height="60" rx="15" fill="#00112D"/>
<path d="M30.0003 18.7252V21.0852M17.4203 31.3052H19.7803M30.0003 43.8852V41.5252M42.5803 31.3052H40.2203M30.0003 16.0852C38.4103 16.0852 45.2203 22.9052 45.2203 31.3052C45.2203 39.7052 38.4003 46.5252 30.0003 46.5252C21.6003 46.5252 14.7803 39.7052 14.7803 31.3052C14.7803 22.9052 21.6003 16.0852 30.0003 16.0852ZM30.0003 10.8052C28.6503 10.8052 27.5603 11.8952 27.5603 13.2452C27.5603 14.5952 28.6503 15.6852 30.0003 15.6852C31.3503 15.6852 32.4403 14.5952 32.4403 13.2452C32.4403 11.8952 31.3503 10.8052 30.0003 10.8052Z" stroke="white" stroke-width="1.44" stroke-linecap="round" stroke-linejoin="round"/>
<path d="M30.0003 18.7252V21.0852M17.4203 31.3052H19.7803M30.0003 16.0852C38.4103 16.0852 45.2203 22.9052 45.2203 31.3052C45.2203 39.7052 38.4003 46.5252 30.0003 46.5252C21.6003 46.5252 14.7803 39.7052 14.7803 31.3052C14.7803 22.9052 21.6003 16.0852 30.0003 16.0852ZM30.0003 10.8052C28.6503 10.8052 27.5603 11.8952 27.5603 13.2452C27.5603 14.5952 28.6503 15.6852 30.0003 15.6852C31.3503 15.6852 32.4403 14.5952 32.4403 13.2452C32.4403 11.8952 31.3503 10.8052 30.0003 10.8052Z" stroke="white" stroke-width="1.44" stroke-linecap="round" stroke-linejoin="round"/>
<path d="M29.9998 43.8851V41.5251M42.5798 31.3051H40.2198M27.0198 29.7151L32.9798 32.8951M28.8798 27.3151V27.3051C27.4298 28.7051 26.4098 30.5951 26.0498 32.5751L24.3398 41.8451L31.1198 35.3051C32.5698 33.9051 33.5898 32.0151 33.9498 30.0351L35.6598 20.7751L28.8798 27.3151Z" stroke="#76FCAB" stroke-width="1.44" stroke-linecap="round" stroke-linejoin="round"/>
</svg>
