<svg width="80" height="80" viewBox="0 0 80 80" fill="none" xmlns="http://www.w3.org/2000/svg">
<g filter="url(#filter0_d_95_1618)">
<path d="M67.0234 28C67.0234 16.9543 58.0691 8 47.0234 8H32C20.9543 8 12 16.9543 12 28V43.0234C12 54.0691 20.9543 63.0234 32 63.0234H47.0234C58.0691 63.0234 67.0234 54.0691 67.0234 43.0234V28Z" fill="white"/>
<path d="M47.0234 8.5H32C21.2305 8.5 12.5 17.2304 12.5 28V43.0234C12.5 53.793 21.2305 62.5234 32 62.5234H47.0234C57.793 62.5234 66.5234 53.793 66.5234 43.0234V28C66.5234 17.3986 58.0635 8.7736 47.5264 8.50684L47.0234 8.5Z" stroke="#E4E4E4"/>
</g>
<path d="M42.2629 41.014L36.7606 35.5116L42.2629 30.0093" stroke="#00112D" stroke-width="2" stroke-linecap="round" stroke-linejoin="round"/>
<defs>
<filter id="filter0_d_95_1618" x="0" y="0" width="79.0234" height="79.0234" filterUnits="userSpaceOnUse" color-interpolation-filters="sRGB">
<feFlood flood-opacity="0" result="BackgroundImageFix"/>
<feColorMatrix in="SourceAlpha" type="matrix" values="0 0 0 0 0 0 0 0 0 0 0 0 0 0 0 0 0 0 127 0" result="hardAlpha"/>
<feOffset dy="4"/>
<feGaussianBlur stdDeviation="6"/>
<feComposite in2="hardAlpha" operator="out"/>
<feColorMatrix type="matrix" values="0 0 0 0 0.0509804 0 0 0 0 0.0392157 0 0 0 0 0.172549 0 0 0 0.06 0"/>
<feBlend mode="normal" in2="BackgroundImageFix" result="effect1_dropShadow_95_1618"/>
<feBlend mode="normal" in="SourceGraphic" in2="effect1_dropShadow_95_1618" result="shape"/>
</filter>
</defs>
</svg>
