<svg width="60" height="60" viewBox="0 0 60 60" fill="none" xmlns="http://www.w3.org/2000/svg">
<rect width="60" height="60" rx="15" fill="#00112D"/>
<path d="M40.5996 28.2002C44.0196 28.2002 46.7998 30.9804 46.7998 34.4004V37.8496C46.7998 38.0953 46.5953 38.2998 46.3496 38.2998H40.126C39.9027 35.1135 38.1659 32.3419 35.6318 30.7021C36.7625 29.1846 38.5666 28.2003 40.5996 28.2002ZM19.9004 28.2002C21.9332 28.2003 23.7365 29.1849 24.8672 30.7021C22.3335 32.3419 20.5973 35.1138 20.374 38.2998H14.1504C13.9047 38.2998 13.7002 38.0953 13.7002 37.8496V34.4004C13.7002 30.9804 16.4804 28.2002 19.9004 28.2002ZM19.9004 16.7002C22.0499 16.7004 23.7996 18.4501 23.7998 20.5996C23.7998 22.7493 22.05 24.4998 19.9004 24.5C17.7506 24.5 16 22.7494 16 20.5996C16.0002 18.45 17.7507 16.7002 19.9004 16.7002ZM40.5996 16.7002C42.7493 16.7002 44.4998 18.45 44.5 20.5996C44.5 22.7494 42.7494 24.5 40.5996 24.5C38.45 24.4998 36.7002 22.7493 36.7002 20.5996C36.7004 18.4501 38.4501 16.7004 40.5996 16.7002Z" stroke="white" stroke-width="1.4"/>
<path d="M30.2495 21.3003C32.3992 21.3003 34.1497 23.0501 34.1499 25.1997C34.1499 27.3495 32.3993 29.1001 30.2495 29.1001C28.0999 29.0999 26.3501 27.3494 26.3501 25.1997C26.3503 23.0502 28.1 21.3005 30.2495 21.3003Z" stroke="#67EF9D" stroke-width="1.4"/>
<path d="M30.2505 32.8003C33.6686 32.8005 36.4497 35.5823 36.4497 39.0005V42.4497C36.4497 42.6981 36.2488 42.8997 36.0005 42.8999H24.5005C24.252 42.8999 24.0503 42.6982 24.0503 42.4497V39.0005C24.0503 35.5822 26.8322 32.8003 30.2505 32.8003Z" stroke="#67EF9D" stroke-width="1.4"/>
</svg>
