<svg width="60" height="60" viewBox="0 0 60 60" fill="none" xmlns="http://www.w3.org/2000/svg">
<rect width="60" height="60" rx="15" fill="#00112D"/>
<path d="M38.668 17.7109C38.7727 17.6893 38.8817 17.6991 38.9795 17.7383L38.9854 17.7412C39.0828 17.7793 39.163 17.8437 39.2178 17.9229C39.2724 18.0018 39.3002 18.0925 39.2998 18.1836V38.8184C39.3002 38.9094 39.2724 39.0002 39.2178 39.0791C39.163 39.1583 39.0828 39.2227 38.9854 39.2607L38.9795 39.2637C38.9185 39.2881 38.8522 39.3002 38.7852 39.2998H38.7832C38.7096 39.2996 38.637 39.2854 38.5703 39.2578C38.5037 39.2303 38.4448 39.1901 38.3965 39.1416C36.2104 36.9473 33.2988 35.3007 30.6934 34.1318C28.4325 33.1176 26.3662 32.4471 25.1328 32.0869V24.9141C26.3662 24.5538 28.4327 23.8843 30.6934 22.8701C33.2988 21.7012 36.2104 20.0545 38.3965 17.8604L38.4004 17.8555C38.4701 17.7842 38.5632 17.7326 38.668 17.7109ZM22.6777 25.2451V31.7568H16.8545C16.5419 31.7557 16.2461 31.6342 16.0312 31.4248C15.8437 31.242 15.7304 31.0058 15.7051 30.7578L15.7002 30.6514V26.3467C15.7012 26.0612 15.8182 25.7832 16.0322 25.5752C16.22 25.3928 16.4692 25.2777 16.7373 25.251L16.8535 25.2451H22.6777Z" stroke="white" stroke-width="1.4"/>
<path d="M21.2998 34.7002V41.1357C21.2998 41.4279 21.1755 41.7197 20.9365 41.9424C20.6959 42.1664 20.3599 42.2998 20 42.2998C19.6401 42.2998 19.3041 42.1664 19.0635 41.9424C18.8245 41.7197 18.7002 41.4279 18.7002 41.1357V34.7002H21.2998Z" stroke="white" stroke-width="1.4"/>
<mask id="path-4-inside-1_145_604" fill="white">
<path d="M45.6106 35C45.4899 34.9999 45.3719 34.9681 45.2716 34.9087C45.1713 34.8492 45.0931 34.7647 45.0469 34.6658C45.0007 34.567 44.9886 34.4582 45.012 34.3532C45.0355 34.2483 45.0936 34.1518 45.1788 34.0761C46.8443 32.5961 47.7796 30.5908 47.7796 28.5001C47.7796 26.4095 46.8443 24.4042 45.1788 22.9242C45.1221 22.8739 45.0772 22.8142 45.0465 22.7486C45.0158 22.6829 45 22.6125 45 22.5414C45 22.4703 45.0158 22.3999 45.0465 22.3342C45.0772 22.2685 45.1221 22.2088 45.1788 22.1586C45.2355 22.1083 45.3028 22.0684 45.3769 22.0412C45.451 22.014 45.5304 22 45.6106 22C45.6908 22 45.7702 22.014 45.8443 22.0412C45.9183 22.0684 45.9856 22.1083 46.0423 22.1586C47.9363 23.8418 49 26.1224 49 28.5001C49 30.8778 47.9363 33.1584 46.0423 34.8417C45.9857 34.892 45.9184 34.9319 45.8443 34.959C45.7702 34.9862 45.6908 35.0001 45.6106 35Z"/>
</mask>
<path d="M45.6106 35L45.6126 33.6L45.6114 33.6L45.6106 35ZM45.1788 34.0761L46.1085 35.1228L46.1088 35.1226L45.1788 34.0761ZM45.1788 22.9242L46.1088 21.8777L46.1076 21.8766L45.1788 22.9242ZM45 22.5414H43.6H45ZM46.0423 22.1586L46.9724 21.1121L46.9711 21.111L46.0423 22.1586ZM49 28.5001H50.4H49ZM46.0423 34.8417L46.9715 35.8889L46.9724 35.8882L46.0423 34.8417ZM45.6106 35L45.6114 33.6C45.7325 33.6001 45.8623 33.6313 45.9855 33.7044L45.2716 34.9087L44.5577 36.113C44.8816 36.305 45.2473 36.3998 45.6098 36.4L45.6106 35ZM45.2716 34.9087L45.9855 33.7044C46.1097 33.778 46.2339 33.8991 46.3152 34.0731L45.0469 34.6658L43.7785 35.2585C43.9522 35.6302 44.2328 35.9204 44.5577 36.113L45.2716 34.9087ZM45.0469 34.6658L46.3152 34.0731C46.398 34.2503 46.4234 34.4571 46.3783 34.6589L45.012 34.3532L43.6458 34.0475C43.5537 34.4592 43.6033 34.8836 43.7785 35.2585L45.0469 34.6658ZM45.012 34.3532L46.3783 34.6589C46.3336 34.8585 46.2289 35.0159 46.1085 35.1228L45.1788 34.0761L44.2491 33.0293C43.9583 33.2877 43.7375 33.638 43.6458 34.0475L45.012 34.3532ZM45.1788 34.0761L46.1088 35.1226C48.051 33.3966 49.1796 31.0195 49.1796 28.5001H47.7796H46.3796C46.3796 30.1621 45.6375 31.7955 44.2489 33.0296L45.1788 34.0761ZM47.7796 28.5001H49.1796C49.1796 25.9808 48.051 23.6036 46.1088 21.8777L45.1788 22.9242L44.2489 23.9707C45.6375 25.2047 46.3796 26.8382 46.3796 28.5001H47.7796ZM45.1788 22.9242L46.1076 21.8766C46.1874 21.9474 46.261 22.0406 46.3149 22.156L45.0465 22.7486L43.7781 23.3411C43.8933 23.5879 44.0569 23.8004 44.25 23.9717L45.1788 22.9242ZM45.0465 22.7486L46.3149 22.156C46.3691 22.272 46.4 22.4036 46.4 22.5414H45H43.6C43.6 22.8214 43.6625 23.0937 43.7781 23.3411L45.0465 22.7486ZM45 22.5414H46.4C46.4 22.6792 46.3691 22.8107 46.3149 22.9268L45.0465 22.3342L43.7781 21.7416C43.6625 21.9891 43.6 22.2614 43.6 22.5414H45ZM45.0465 22.3342L46.3149 22.9268C46.261 23.0422 46.1874 23.1354 46.1076 23.2061L45.1788 22.1586L44.25 21.111C44.0569 21.2823 43.8933 21.4949 43.7781 21.7416L45.0465 22.3342ZM45.1788 22.1586L46.1076 23.2061C46.0282 23.2766 45.9426 23.3249 45.8596 23.3554L45.3769 22.0412L44.8943 20.727C44.6631 20.812 44.4429 20.94 44.25 21.111L45.1788 22.1586ZM45.3769 22.0412L45.8596 23.3554C45.7766 23.3859 45.6924 23.4 45.6106 23.4V22V20.6C45.3684 20.6 45.1255 20.6421 44.8943 20.727L45.3769 22.0412ZM45.6106 22V23.4C45.5288 23.4 45.4446 23.3859 45.3616 23.3554L45.8443 22.0412L46.3269 20.727C46.0957 20.6421 45.8528 20.6 45.6106 20.6V22ZM45.8443 22.0412L45.3616 23.3554C45.2786 23.3249 45.193 23.2766 45.1135 23.2061L46.0423 22.1586L46.9711 21.111C46.7783 20.94 46.5581 20.812 46.3269 20.727L45.8443 22.0412ZM46.0423 22.1586L45.1123 23.205C46.7296 24.6423 47.6 26.5511 47.6 28.5001H49H50.4C50.4 25.6937 49.1431 23.0413 46.9724 21.1121L46.0423 22.1586ZM49 28.5001H47.6C47.6 30.4491 46.7296 32.3579 45.1123 33.7952L46.0423 34.8417L46.9724 35.8882C49.1431 33.9589 50.4 31.3065 50.4 28.5001H49ZM46.0423 34.8417L45.1131 33.7945C45.193 33.7237 45.2789 33.6752 45.3623 33.6446L45.8443 34.959L46.3262 36.2735C46.5578 36.1885 46.7784 36.0603 46.9715 35.8889L46.0423 34.8417ZM45.8443 34.959L45.3623 33.6446C45.4457 33.614 45.5303 33.5999 45.6126 33.6L45.6106 35L45.6086 36.4C45.8512 36.4003 46.0946 36.3584 46.3262 36.2735L45.8443 34.959Z" fill="#67EF9D" mask="url(#path-4-inside-1_145_604)"/>
<mask id="path-6-inside-2_145_604" fill="white">
<path d="M43.4428 32C43.3553 31.9999 43.2697 31.9709 43.197 31.9167C43.1242 31.8624 43.0675 31.7853 43.034 31.6951C43.0005 31.6049 42.9917 31.5057 43.0087 31.4099C43.0258 31.3142 43.0679 31.2262 43.1297 31.1571C43.7605 30.4519 44.1147 29.4963 44.1147 28.5001C44.1147 27.5039 43.7605 26.5484 43.1297 25.8431C43.0467 25.7505 43 25.6249 43 25.4939C43 25.3629 43.0467 25.2373 43.1297 25.1447C43.2127 25.052 43.3253 25 43.4428 25C43.5602 25 43.6728 25.052 43.7559 25.1447C44.5526 26.0352 45 27.242 45 28.5001C45 29.7583 44.5526 30.965 43.7559 31.8556C43.7148 31.9015 43.666 31.9379 43.6122 31.9626C43.5585 31.9874 43.5009 32.0001 43.4428 32Z"/>
</mask>
<path d="M43.4428 32L43.4456 30.6L43.4438 30.6L43.4428 32ZM43.1297 31.1571L44.1729 32.0907L44.1732 32.0904L43.1297 31.1571ZM43.1297 25.8431L44.1732 24.9098L44.1721 24.9086L43.1297 25.8431ZM43.7559 25.1447L44.7993 24.2112L44.7983 24.2101L43.7559 25.1447ZM45 28.5001H43.6H45ZM43.7559 31.8556L44.7989 32.7895L44.7993 32.789L43.7559 31.8556ZM43.4428 32L43.4438 30.6C43.6693 30.6002 43.8748 30.6757 44.0339 30.7944L43.197 31.9167L42.36 33.0389C42.6647 33.2662 43.0412 33.3997 43.4417 33.4L43.4428 32ZM43.197 31.9167L44.0339 30.7944C44.1907 30.9114 44.2918 31.0608 44.3464 31.2076L43.034 31.6951L41.7216 32.1826C41.8432 32.5099 42.0577 32.8135 42.36 33.0389L43.197 31.9167ZM43.034 31.6951L44.3464 31.2076C44.4008 31.3541 44.4133 31.508 44.3871 31.6551L43.0087 31.4099L41.6304 31.1648C41.5701 31.5034 41.6002 31.8558 41.7216 32.1826L43.034 31.6951ZM43.0087 31.4099L44.3871 31.6551C44.3609 31.8024 44.2933 31.9562 44.1729 32.0907L43.1297 31.1571L42.0864 30.2235C41.8424 30.4962 41.6906 30.826 41.6304 31.1648L43.0087 31.4099ZM43.1297 31.1571L44.1732 32.0904C45.0465 31.114 45.5147 29.8208 45.5147 28.5001H44.1147H42.7147C42.7147 29.1719 42.4744 29.7897 42.0862 30.2238L43.1297 31.1571ZM44.1147 28.5001H45.5147C45.5147 27.1795 45.0465 25.8862 44.1732 24.9098L43.1297 25.8431L42.0862 26.7764C42.4744 27.2106 42.7147 27.8284 42.7147 28.5001H44.1147ZM43.1297 25.8431L44.1721 24.9086C44.3323 25.0873 44.4 25.3 44.4 25.4939H43H41.6C41.6 25.9498 41.761 26.4137 42.0873 26.7777L43.1297 25.8431ZM43 25.4939H44.4C44.4 25.6878 44.3323 25.9005 44.1721 26.0792L43.1297 25.1447L42.0873 24.2101C41.761 24.5741 41.6 25.038 41.6 25.4939H43ZM43.1297 25.1447L44.1721 26.0792C44.0074 26.2629 43.7491 26.4 43.4428 26.4V25V23.6C42.9016 23.6 42.4181 23.8411 42.0873 24.2101L43.1297 25.1447ZM43.4428 25V26.4C43.1365 26.4 42.8782 26.2629 42.7134 26.0792L43.7559 25.1447L44.7983 24.2101C44.4675 23.8411 43.9839 23.6 43.4428 23.6V25ZM43.7559 25.1447L42.7124 26.0781C43.2666 26.6975 43.6 27.5665 43.6 28.5001H45H46.4C46.4 26.9175 45.8386 25.373 44.7993 24.2112L43.7559 25.1447ZM45 28.5001H43.6C43.6 29.4338 43.2666 30.3027 42.7124 30.9222L43.7559 31.8556L44.7993 32.789C45.8386 31.6273 46.4 30.0827 46.4 28.5001H45ZM43.7559 31.8556L42.7129 30.9217C42.794 30.8311 42.8988 30.75 43.0259 30.6914L43.6122 31.9626L44.1986 33.2339C44.4331 33.1258 44.6356 32.9719 44.7989 32.7895L43.7559 31.8556ZM43.6122 31.9626L43.0259 30.6914C43.1535 30.6325 43.2967 30.5997 43.4456 30.6L43.4428 32L43.4399 33.4C43.7052 33.4005 43.9635 33.3424 44.1986 33.2339L43.6122 31.9626Z" fill="#67EF9D" mask="url(#path-6-inside-2_145_604)"/>
</svg>
