<svg width="60" height="60" viewBox="0 0 60 60" fill="none" xmlns="http://www.w3.org/2000/svg">
<rect width="60" height="60" rx="15" fill="#00112D"/>
<path d="M26.2766 43.0655L26.7418 39.4429C26.9424 37.8947 27.6514 36.4569 28.7575 35.3551L36.7639 27.3346C37.7564 26.3687 39.0115 25.7167 40.3724 25.4599V21.0479C40.3724 19.1787 39.6299 17.386 38.3082 16.0643C36.9864 14.7425 35.1938 14 33.3245 14H22.0479C20.1787 14 18.386 14.7425 17.0643 16.0643C15.7425 17.386 15 19.1787 15 21.0479V37.9629C15 38.8884 15.1823 39.8049 15.5365 40.66C15.8907 41.5151 16.4098 42.292 17.0643 42.9465C18.386 44.2682 20.1787 45.0108 22.0479 45.0108H26.5304C26.2913 44.392 26.2043 43.7249 26.2766 43.0655ZM20.6383 22.4575H31.915C32.2888 22.4575 32.6473 22.606 32.9117 22.8703C33.176 23.1347 33.3245 23.4932 33.3245 23.8671C33.3245 24.2409 33.176 24.5994 32.9117 24.8638C32.6473 25.1281 32.2888 25.2766 31.915 25.2766H20.6383C20.2645 25.2766 19.9059 25.1281 19.6416 24.8638C19.3772 24.5994 19.2287 24.2409 19.2287 23.8671C19.2287 23.4932 19.3772 23.1347 19.6416 22.8703C19.9059 22.606 20.2645 22.4575 20.6383 22.4575ZM20.6383 28.0958H29.0958C29.4696 28.0958 29.8282 28.2443 30.0925 28.5087C30.3569 28.773 30.5054 29.1315 30.5054 29.5054C30.5054 29.8792 30.3569 30.2378 30.0925 30.5021C29.8282 30.7664 29.4696 30.915 29.0958 30.915H20.6383C20.2645 30.915 19.9059 30.7664 19.6416 30.5021C19.3772 30.2378 19.2287 29.8792 19.2287 29.5054C19.2287 29.1315 19.3772 28.773 19.6416 28.5087C19.9059 28.2443 20.2645 28.0958 20.6383 28.0958ZM23.4575 36.5533H20.6383C20.2645 36.5533 19.9059 36.4048 19.6416 36.1404C19.3772 35.8761 19.2287 35.5175 19.2287 35.1437C19.2287 34.7699 19.3772 34.4113 19.6416 34.147C19.9059 33.8826 20.2645 33.7341 20.6383 33.7341H23.4575C23.8313 33.7341 24.1899 33.8826 24.4542 34.147C24.7185 34.4113 24.8671 34.7699 24.8671 35.1437C24.8671 35.5175 24.7185 35.8761 24.4542 36.1404C24.1899 36.4048 23.8313 36.5533 23.4575 36.5533Z" stroke="white" stroke-width="1.4"/>
<path d="M36.75 43.3333L44.7705 35.3128C45.5605 34.518 46.0028 33.4422 46.0001 32.3215C45.9975 31.2009 45.5502 30.1272 44.7564 29.3362C43.9497 28.5707 42.8801 28.144 41.7681 28.144C40.6561 28.144 39.5864 28.5707 38.7798 29.3362L30.7593 37.3567C30.0934 38.0148 29.671 38.8796 29.5611 39.8093L29.096 43.4179C29.0697 43.6177 29.0867 43.8209 29.1457 44.0137C29.2047 44.2065 29.3044 44.3843 29.438 44.5353C29.5716 44.6863 29.736 44.8068 29.9202 44.8888C30.1043 44.9708 30.3039 45.0124 30.5055 45.0107H30.6888L34.2973 44.5314C35.227 44.4216 36.0918 43.9991 36.75 43.3333Z" stroke="#67EF9D" stroke-width="1.4"/>
</svg>
