<svg width="60" height="60" viewBox="0 0 60 60" fill="none" xmlns="http://www.w3.org/2000/svg">
<rect width="60" height="60" rx="15" fill="#00112D"/>
<path d="M31.7246 27.0969L31.7256 27.0959C31.9211 27.5181 32.3205 27.8073 32.7822 27.8635V27.8655L36.9375 28.4192L34.0137 31.343L34.0088 31.3489L34.0029 31.3547C33.6894 31.6829 33.5513 32.1408 33.6309 32.5872V32.5881L34.3271 36.55L30.7197 34.6448L30.7188 34.6458C30.3135 34.4186 29.8215 34.4168 29.415 34.6409V34.6399L25.7676 36.4983L26.4629 32.6379L26.4658 32.6213L26.4678 32.6047C26.5267 32.156 26.3707 31.7062 26.0479 31.3899H26.0488L23.1211 28.4631L27.1465 27.8801L27.1455 27.8792C27.6024 27.8183 27.9997 27.5362 28.2061 27.1233L28.208 27.1204L30.001 23.4895L31.7246 27.0969Z" stroke="#67EF9D" stroke-width="1.4"/>
<path d="M28.8618 14.8008C28.8569 14.2359 29.2819 13.7678 29.8315 13.707L29.9429 13.7002H29.9741C30.5554 13.6952 31.0378 14.1327 31.1001 14.6982L31.1069 14.8125V16.2051C31.0985 16.8185 30.5981 17.3125 29.9839 17.3125V17.3115L29.9722 17.3125C29.3696 17.3231 28.8724 16.8428 28.8618 16.2402V14.8008Z" stroke="white" stroke-width="1.4"/>
<path d="M28.8618 43.8511C28.8566 43.2486 29.3405 42.7559 29.9429 42.7505H29.981C30.562 42.7405 31.0475 43.1739 31.1147 43.7388L31.1226 43.853V45.2349C31.0918 45.8352 30.5929 46.305 29.9907 46.2993H29.9722C29.3696 46.3099 28.8724 45.8306 28.8618 45.228V43.8511Z" stroke="white" stroke-width="1.4"/>
<path d="M39.9761 18.4832C40.3872 18.0308 41.0872 17.9977 41.5396 18.4089C41.7817 18.6292 41.9141 18.9452 41.9009 19.2722L41.8999 19.2908L41.9009 19.3083C41.9044 19.603 41.7899 19.8873 41.5835 20.0974L40.6284 21.0671C40.403 21.2689 40.1063 21.3718 39.8042 21.3513L39.771 21.3494L39.7378 21.3503C39.4489 21.3581 39.1693 21.2455 38.9663 21.0398L38.9565 21.03L38.8833 20.9509C38.7262 20.7654 38.6334 20.5332 38.6196 20.2888C38.6317 19.9925 38.7566 19.7119 38.9702 19.5056L38.9771 19.4998L38.9829 19.4929L39.9575 18.5027L39.9673 18.4929L39.9761 18.4832Z" stroke="white" stroke-width="1.4"/>
<path d="M19.4258 38.9719C19.8451 38.5668 20.4943 38.5412 20.9424 38.8958L21.0293 38.9719C21.4335 39.3738 21.4627 40.0114 21.1133 40.4475L21.0381 40.5325L20.0371 41.5334C19.8274 41.7381 19.5458 41.8527 19.2529 41.8528H19.2451L19.2373 41.8538C18.9469 41.8605 18.6658 41.7473 18.4609 41.5413L18.4561 41.5354L18.3789 41.4524C18.0206 41.0206 18.0406 40.3786 18.4424 39.97H18.4434C18.446 39.9673 18.4491 39.9631 18.457 39.9553L18.4639 39.9495L19.4248 38.9709L19.4258 38.9719Z" stroke="white" stroke-width="1.4"/>
<path d="M45.1924 28.8774C45.8124 28.8777 46.3147 29.3806 46.3145 30.0005C46.314 30.62 45.8119 31.1223 45.1924 31.1226H43.7949C43.175 31.1223 42.6727 30.6193 42.6729 29.9995C42.6731 29.4188 43.1141 28.9411 43.6797 28.8833L43.7949 28.8774H45.1924Z" stroke="white" stroke-width="1.4"/>
<path d="M13.7002 29.9741C13.6962 29.6869 13.8091 29.4101 14.0127 29.2075L14.0205 29.1997C14.2062 29.0087 14.4507 28.887 14.7129 28.854L14.8262 28.8462H16.1895C16.8093 28.8465 17.3118 29.3493 17.3115 29.9692C17.3111 30.5886 16.8089 31.0909 16.1895 31.0913H15.4893V31.1226H14.8125C14.193 31.117 13.6951 30.6104 13.7002 29.9907V29.9741Z" stroke="white" stroke-width="1.4"/>
<path d="M38.9517 38.9746C39.3697 38.5753 40.0132 38.5501 40.4595 38.8994L40.5464 38.9746L41.52 39.9482V39.9492C41.7268 40.1595 41.8409 40.4435 41.8374 40.7383V40.7471C41.8378 41.0446 41.7225 41.3299 41.5171 41.5449C41.3079 41.7453 41.0287 41.857 40.7388 41.8535H40.7144C40.4241 41.8601 40.1437 41.7469 39.939 41.541L38.9448 40.5469C38.7324 40.3366 38.61 40.0524 38.603 39.7539C38.6086 39.4598 38.7331 39.1799 38.9478 38.9785L38.9517 38.9746Z" stroke="white" stroke-width="1.4"/>
<path d="M18.5166 18.4656C18.936 18.0627 19.5841 18.0384 20.0312 18.3923L20.1182 18.4685L21.1113 19.4617L21.123 19.4724C21.5753 19.8836 21.6091 20.5838 21.1982 21.0359C21.0693 21.1778 20.9063 21.2803 20.7285 21.3396L20.29 21.3503C19.9996 21.357 19.7185 21.2439 19.5137 21.0378L18.5225 20.0466L18.5215 20.0447L18.4482 19.9646C18.2889 19.7698 18.2031 19.5234 18.209 19.2693V19.2449C18.2056 18.9547 18.3161 18.6747 18.5166 18.4656Z" stroke="white" stroke-width="1.4"/>
</svg>
