<svg width="60" height="60" viewBox="0 0 60 60" fill="none" xmlns="http://www.w3.org/2000/svg">
<rect width="60" height="60" rx="15" fill="#00112D"/>
<path d="M29.7612 31.8135C31.834 31.8135 33.5142 33.4936 33.5142 35.5664C33.5142 37.6392 31.834 39.3193 29.7612 39.3193C27.6884 39.3193 26.0083 37.6392 26.0083 35.5664C26.0083 33.4936 27.6884 31.8135 29.7612 31.8135Z" stroke="white" stroke-width="1.4"/>
<path d="M29.7612 40.7197C33.048 40.7197 35.7407 43.4665 35.7407 46.7734V48.2998H23.7817V46.7734C23.7817 43.4665 26.4744 40.7197 29.7612 40.7197Z" stroke="white" stroke-width="1.4"/>
<path d="M31.1797 15.5283L31.3418 15.8623L31.709 15.916L34.8828 16.377L32.5869 18.6172L32.3232 18.874L32.3848 19.2363L32.9277 22.4004L30.0869 20.9072L29.7617 20.7354L29.4355 20.9072L26.5938 22.4004L27.1377 19.2363L27.2002 18.874L26.9365 18.6172L24.6367 16.377L27.8135 15.916L28.1807 15.8623L28.3428 15.5283L29.7607 12.6035L31.1797 15.5283Z" stroke="#67EF9D" stroke-width="1.4"/>
<path d="M20.0488 25.2646L20.2119 25.5938L20.5762 25.6475L23.75 26.1084L21.4541 28.3486L21.1904 28.6055L21.252 28.9678L21.7949 32.1318L18.9541 30.6387L18.6289 30.4668L18.3027 30.6387L15.4609 32.1318L16.0049 28.9678L16.0674 28.6055L15.8037 28.3486L13.5039 26.1084L16.6807 25.6475L17.0449 25.5947L17.208 25.2646L18.6279 22.3857L20.0488 25.2646Z" stroke="white" stroke-width="1.4"/>
<path d="M42.3145 25.2646L42.4775 25.5938L42.8418 25.6475L46.0156 26.1084L43.7197 28.3486L43.4561 28.6055L43.5176 28.9678L44.0605 32.1318L41.2197 30.6387L40.8945 30.4668L40.5684 30.6387L37.7266 32.1318L38.2705 28.9678L38.333 28.6055L38.0693 28.3486L35.7695 26.1084L38.9463 25.6475L39.3105 25.5947L39.4736 25.2646L40.8936 22.3857L42.3145 25.2646Z" stroke="white" stroke-width="1.4"/>
</svg>
