<svg width="60" height="60" viewBox="0 0 60 60" fill="none" xmlns="http://www.w3.org/2000/svg">
<rect width="60" height="60" rx="15" fill="#00112D"/>
<path d="M40.6709 23.9927H45.1611C45.1791 23.9927 45.1972 23.9965 45.2139 24.0034C45.2305 24.0103 45.246 24.02 45.2588 24.0327C45.2715 24.0454 45.2811 24.0611 45.2881 24.0776C45.2951 24.0944 45.2988 24.1131 45.2988 24.1313V45.1616C45.2988 45.1797 45.2959 45.1977 45.2891 45.2144C45.2821 45.2311 45.2716 45.2465 45.2588 45.2593C45.246 45.2721 45.2306 45.2826 45.2139 45.2896C45.1972 45.2965 45.1792 45.3003 45.1611 45.3003H40.6709C40.6527 45.3003 40.634 45.2965 40.6172 45.2896C40.6005 45.2826 40.585 45.272 40.5723 45.2593C40.5596 45.2465 40.5499 45.231 40.543 45.2144C40.536 45.1976 40.5322 45.1798 40.5322 45.1616V24.1313C40.5322 24.1131 40.536 24.0945 40.543 24.0776C40.5499 24.061 40.5595 24.0455 40.5723 24.0327C40.585 24.02 40.6006 24.0104 40.6172 24.0034C40.634 23.9965 40.6527 23.9927 40.6709 23.9927ZM23.4521 27.9663H27.9414C27.9782 27.9663 28.014 27.9813 28.04 28.0073C28.0529 28.0202 28.0625 28.0357 28.0693 28.0522L28.0801 28.106V45.1616C28.0799 45.1982 28.0658 45.2334 28.04 45.2593C28.014 45.2853 27.9782 45.3003 27.9414 45.3003H23.4512C23.4332 45.3002 23.4151 45.2964 23.3984 45.2896C23.3817 45.2826 23.3663 45.2721 23.3535 45.2593C23.3408 45.2465 23.3311 45.231 23.3242 45.2144C23.3173 45.1976 23.3135 45.1798 23.3135 45.1616V28.105C23.3135 28.0869 23.3173 28.069 23.3242 28.0522C23.3311 28.0356 23.3408 28.0201 23.3535 28.0073C23.3663 27.9945 23.3817 27.984 23.3984 27.9771C23.4152 27.9701 23.434 27.9663 23.4521 27.9663ZM14.8418 35.9155H19.332C19.35 35.9155 19.3681 35.9185 19.3848 35.9253C19.4015 35.9322 19.4169 35.9428 19.4297 35.9556C19.4425 35.9684 19.453 35.9837 19.46 36.0005C19.4669 36.0172 19.4707 36.0351 19.4707 36.0532V45.1616C19.4707 45.1797 19.4669 45.1976 19.46 45.2144C19.453 45.2312 19.4425 45.2464 19.4297 45.2593C19.4168 45.2721 19.4015 45.2826 19.3848 45.2896C19.3681 45.2964 19.3501 45.3003 19.332 45.3003H14.8418C14.8237 45.3003 14.8058 45.2965 14.7891 45.2896C14.7723 45.2826 14.757 45.2721 14.7441 45.2593C14.7314 45.2465 14.7217 45.231 14.7148 45.2144C14.7079 45.1976 14.7041 45.1798 14.7041 45.1616V36.0532C14.7041 36.0351 14.7079 36.0172 14.7148 36.0005C14.7218 35.9838 14.7314 35.9684 14.7441 35.9556C14.757 35.9427 14.7723 35.9322 14.7891 35.9253C14.8057 35.9184 14.8237 35.9156 14.8418 35.9155ZM32.0605 31.9409H36.5508C36.5689 31.9409 36.5868 31.9447 36.6035 31.9517C36.6202 31.9586 36.6356 31.9682 36.6484 31.981C36.6613 31.9938 36.6717 32.01 36.6787 32.0269C36.6856 32.0436 36.6895 32.0615 36.6895 32.0796V45.1616C36.6894 45.1797 36.6856 45.1976 36.6787 45.2144C36.6718 45.2311 36.6613 45.2464 36.6484 45.2593C36.6356 45.2721 36.6203 45.2826 36.6035 45.2896C36.5868 45.2964 36.5689 45.3003 36.5508 45.3003H32.0605C32.0425 45.3003 32.0245 45.2965 32.0078 45.2896C31.991 45.2826 31.9757 45.2721 31.9629 45.2593C31.9501 45.2465 31.9395 45.2311 31.9326 45.2144C31.9258 45.1977 31.9229 45.1797 31.9229 45.1616V32.0796L31.9326 32.0269C31.9396 32.01 31.95 31.9938 31.9629 31.981C31.9757 31.9682 31.9912 31.9586 32.0078 31.9517C32.0245 31.9448 32.0425 31.941 32.0605 31.9409Z" stroke="white" stroke-width="1.4"/>
<path d="M42.7607 14.7002H42.7617C43.1413 14.7001 43.516 14.7852 43.8584 14.9492C44.2009 15.1133 44.5023 15.3524 44.7402 15.6484C44.9781 15.9445 45.1469 16.2903 45.2334 16.6602C45.3199 17.0301 45.3222 17.4152 45.2402 17.7861C45.1583 18.157 44.994 18.5047 44.7598 18.8037C44.5255 19.1027 44.2272 19.3453 43.8867 19.5137C43.5462 19.682 43.1718 19.7719 42.792 19.7764C42.4124 19.7808 42.0366 19.7001 41.6924 19.54H41.6934L41.3789 19.3936L40.9531 19.1953L40.6084 19.5137L36.7861 23.043L36.4512 23.3525L36.5986 23.7842L36.707 24.1025H36.708C36.8275 24.4512 36.8691 24.8219 36.8311 25.1885C36.7929 25.5552 36.6751 25.9099 36.4863 26.2266C36.2976 26.543 36.0425 26.8146 35.7383 27.0225C35.4338 27.2304 35.0873 27.3701 34.7236 27.4307C34.3601 27.4912 33.9872 27.472 33.6318 27.374C33.2766 27.2761 32.9472 27.1015 32.666 26.8633C32.3847 26.6249 32.1589 26.3277 32.0039 25.9932C31.849 25.6586 31.7685 25.2945 31.7686 24.9258C31.7686 24.8552 31.7726 24.7793 31.7803 24.6953L31.8135 24.332L31.8584 23.8398L31.4092 23.6328L28.4346 22.2598L28.0098 22.0645L27.667 22.3799L27.4131 22.6133V22.6143C27.0171 22.98 26.5142 23.2097 25.9785 23.2695C25.4429 23.3293 24.9015 23.2156 24.4346 22.9463L24.1152 22.7617L23.6816 22.5117L23.3047 22.8418L19.5898 26.0938L19.2031 26.4326L19.4111 26.9033L19.5645 27.251C19.8034 27.7931 19.8459 28.4018 19.6836 28.9717C19.5213 29.5417 19.1647 30.0372 18.6758 30.3721C18.1868 30.707 17.5959 30.8604 17.0059 30.8057C16.4158 30.751 15.8634 30.4914 15.4443 30.0723C15.0253 29.6532 14.7658 29.1009 14.7109 28.5107C14.6561 27.9205 14.8098 27.3299 15.1445 26.8408C15.4793 26.3517 15.9741 25.9945 16.5439 25.832C17.1137 25.6696 17.7225 25.7113 18.2646 25.9502L18.5654 26.084L18.9736 26.2646L19.3096 25.9707L23.1777 22.583L23.5234 22.2803L23.3828 21.8438L23.2803 21.5205C23.1686 21.1715 23.1333 20.8022 23.1777 20.4385C23.2222 20.0749 23.3447 19.7248 23.5371 19.4131C23.7295 19.1013 23.9879 18.8356 24.293 18.6328C24.5981 18.43 24.9437 18.2958 25.3057 18.2393C25.6675 18.1827 26.0373 18.2048 26.3896 18.3047C26.7421 18.4047 27.0693 18.5801 27.3477 18.8184C27.6259 19.0565 27.8497 19.3519 28.0029 19.6846C28.1562 20.0174 28.2352 20.3796 28.2354 20.7461L28.2246 20.9678V20.9688L28.1924 21.3311L28.1484 21.8223L28.5967 22.0283L31.5762 23.4043L31.999 23.5996L32.3428 23.2852L32.5957 23.0537L32.5967 23.0527C32.9864 22.6952 33.4789 22.4687 34.0039 22.4053C34.529 22.342 35.0608 22.4446 35.5244 22.6992L35.8496 22.8789L36.291 23.1211L36.6621 22.7793L40.3906 19.3379L40.752 19.0049L40.5605 18.5518L40.4199 18.2178C40.2585 17.8324 40.1948 17.413 40.2344 16.9971C40.274 16.5807 40.4159 16.1803 40.6475 15.832C40.8791 15.4838 41.1938 15.1985 41.5625 15.001C41.9311 14.8035 42.3426 14.7001 42.7607 14.7002Z" stroke="#67EF9D" stroke-width="1.4"/>
</svg>
