<svg width="40" height="40" viewBox="0 0 40 40" fill="none" xmlns="http://www.w3.org/2000/svg">
<path d="M11.6666 15V25" stroke="#00112D" stroke-width="1.5" stroke-linecap="round" stroke-linejoin="round"/>
<path d="M11.6667 15.0001H10C8.44687 15.0001 7.6703 15.0001 7.05772 15.2538C6.24097 15.5921 5.59205 16.241 5.25373 17.0577C5 17.6704 5 18.4469 5 20.0001C5 21.5532 5 22.3297 5.25373 22.9424C5.59205 23.7591 6.24097 24.4081 7.05772 24.7464C7.6703 25.0001 8.44687 25.0001 10 25.0001H11.6667L25.1327 29.0399C26.7152 29.5146 27.5065 29.7521 28.2095 30.1691L28.2432 30.1892C28.9438 30.6106 29.5278 31.1946 30.6962 32.3629L30.9763 32.6431C31.1752 32.8419 31.2745 32.9412 31.385 33.0206C31.5935 33.1702 31.8338 33.2699 32.0872 33.3114C32.2212 33.3334 32.3618 33.3334 32.643 33.3334C33.2855 33.3334 33.6068 33.3334 33.866 33.2459C34.3592 33.0796 34.7462 32.6926 34.9125 32.1994C35 31.9402 35 31.6189 35 30.9764V9.02376C35 8.38118 35 8.0599 34.9125 7.80073C34.7462 7.30761 34.3592 6.9205 33.866 6.75417C33.6068 6.66675 33.2855 6.66675 32.643 6.66675C32.3618 6.66675 32.2212 6.66675 32.0872 6.68875C31.8338 6.73033 31.5935 6.82986 31.385 6.9796C31.2745 7.05885 31.1752 7.15826 30.9763 7.3571L30.6962 7.63725C29.5278 8.80551 28.9438 9.38965 28.2432 9.8109L28.2095 9.83101C27.5065 10.2481 26.7152 10.4855 25.1327 10.9603L11.6667 15.0001Z" stroke="#00112D" stroke-width="1.5" stroke-linecap="round" stroke-linejoin="round"/>
<path d="M13.3334 25.8333V30.0763C13.3334 31.8751 14.7916 33.3333 16.5903 33.3333C17.6792 33.3333 18.6962 32.7891 19.3002 31.8829L21.6667 28.3333" stroke="#00112D" stroke-width="1.5" stroke-linecap="round" stroke-linejoin="round"/>
</svg>
