<svg width="40" height="40" viewBox="0 0 40 40" fill="none" xmlns="http://www.w3.org/2000/svg">
<path d="M19.6689 10.8159L22.1449 8.33995C24.9327 5.55209 28.5826 4.3957 32.4452 4.20674C33.9477 4.13324 34.6989 4.09649 35.3012 4.69889C35.9037 5.30127 35.8669 6.05247 35.7934 7.5549C35.6044 11.4176 34.4481 15.0675 31.6602 17.8553L29.1842 20.3313C27.1452 22.3703 26.5656 22.9501 26.9936 25.1618C27.4161 26.8513 27.8249 28.4873 26.5964 29.7158C25.1062 31.2059 23.7469 31.2059 22.2567 29.7158L10.2844 17.7434C8.79423 16.2532 8.79418 14.8939 10.2844 13.4037C11.5129 12.1752 13.1489 12.5842 14.8384 13.0066C17.0501 13.4346 17.6299 12.8549 19.6689 10.8159Z" stroke="#00112D" stroke-width="1.5" stroke-linejoin="round"/>
<path d="M28.3264 11.6667H28.3414" stroke="#00112D" stroke-width="2" stroke-linecap="round" stroke-linejoin="round"/>
<path d="M4.16675 35.8333L12.5001 27.5" stroke="#00112D" stroke-width="1.5" stroke-linecap="round"/>
<path d="M14.1667 35.8333L17.5001 32.5" stroke="#00112D" stroke-width="1.5" stroke-linecap="round"/>
<path d="M4.16675 25.8333L7.50008 22.5" stroke="#00112D" stroke-width="1.5" stroke-linecap="round"/>
</svg>
