<svg width="40" height="40" viewBox="0 0 40 40" fill="none" xmlns="http://www.w3.org/2000/svg">
<path d="M28.3333 19.6742C28.3333 19.0981 28.3333 18.8101 28.4199 18.5534C28.6719 17.8074 29.3363 17.5181 30.0018 17.2149C30.7499 16.8741 31.1239 16.7037 31.4946 16.6737C31.9154 16.6397 32.3369 16.7304 32.6966 16.9322C33.1734 17.1997 33.5059 17.7082 33.8464 18.1217C35.4188 20.0314 36.2048 20.9864 36.4924 22.0394C36.7246 22.8891 36.7246 23.7777 36.4924 24.6274C36.0729 26.1632 34.7474 27.4507 33.7663 28.6424C33.2644 29.2519 33.0134 29.5567 32.6966 29.7346C32.3369 29.9364 31.9154 30.0271 31.4946 29.9931C31.1239 29.9631 30.7499 29.7927 30.0018 29.4519C29.3363 29.1487 28.6719 28.8594 28.4199 28.1134C28.3333 27.8567 28.3333 27.5687 28.3333 26.9926V19.6742Z" stroke="#00112D" stroke-width="1.5"/>
<path d="M11.6666 19.6744C11.6666 18.949 11.6462 18.297 11.0598 17.787C10.8465 17.6015 10.5637 17.4727 9.9981 17.215C9.24994 16.8744 8.87585 16.704 8.50519 16.674C7.3931 16.584 6.79479 17.343 6.15347 18.122C4.58117 20.0317 3.79502 20.9865 3.50735 22.0395C3.27522 22.8894 3.27522 23.778 3.50735 24.6277C3.92692 26.1635 5.25245 27.4509 6.2336 28.6427C6.85207 29.3939 7.44287 30.0792 8.50519 29.9934C8.87585 29.9634 9.24994 29.7929 9.9981 29.4522C10.5637 29.1945 10.8465 29.0657 11.0598 28.8802C11.6462 28.3702 11.6666 27.7184 11.6666 26.9929V19.6744Z" stroke="#00112D" stroke-width="1.5"/>
<path d="M33.3334 17.4999V14.9999C33.3334 8.5566 27.3639 3.33325 20.0001 3.33325C12.6363 3.33325 6.66675 8.5566 6.66675 14.9999V17.4999" stroke="#00112D" stroke-width="1.5" stroke-linecap="round" stroke-linejoin="round"/>
<path d="M33.3333 29.1667C33.3333 36.6667 26.6667 36.6667 20 36.6667" stroke="#00112D" stroke-width="1.5" stroke-linecap="round" stroke-linejoin="round"/>
</svg>
